<svg width="25" height="19" viewBox="0 0 25 19" fill="none" xmlns="http://www.w3.org/2000/svg">
<g clip-path="url(#clip0_0_2306)">
<path d="M24.9981 10.0736C24.9792 9.61027 24.7213 9.17113 24.28 8.8506L15.2128 2.14812C15.0768 2.04517 14.9154 1.96361 14.7377 1.9081C14.5601 1.85259 14.3698 1.82422 14.1777 1.82463H12.5594L23.1919 9.7015L23.1964 9.70476C23.3446 9.81139 23.4315 9.95802 23.4383 10.1129C23.445 10.2678 23.3711 10.4185 23.2325 10.5323L15.5959 16.9552L16.6678 17.7464L24.3864 11.3317C24.8 10.9895 25.0197 10.5376 24.9981 10.0736Z" fill="black" fill-opacity="0.26"/>
<path d="M20.8446 10.4912C20.9191 10.3355 20.9347 10.1671 20.8895 10.0051C20.8444 9.84309 20.7403 9.6939 20.5891 9.57446C20.584 9.57035 20.5794 9.5659 20.5742 9.56187L10.9524 2.13838L10.9478 2.1349C10.803 2.02446 10.6308 1.9369 10.4412 1.87729C10.2515 1.81768 10.0482 1.7872 9.8429 1.78763H2.93909C2.36697 1.78812 1.81848 1.96079 1.41394 2.26775C1.00939 2.57472 0.781834 2.99091 0.781188 3.42502V8.6528C0.781537 8.8143 0.825201 8.97406 0.909523 9.12234C0.993845 9.27063 1.11706 9.40434 1.27166 9.51533L11.5411 16.9328L11.5449 16.9355C11.7614 17.0908 12.0482 17.1771 12.3461 17.1766C12.3607 17.1766 12.3753 17.1764 12.3901 17.176C12.502 17.1729 12.6129 17.1577 12.7192 17.1309C12.9071 17.0834 13.076 17.0003 13.2098 16.8894L20.6045 10.7902C20.7098 10.7036 20.7914 10.6019 20.8446 10.4912ZM12.329 15.8649L2.34744 8.65536L2.34368 8.65269V3.42502C2.34386 3.30524 2.40665 3.19041 2.51827 3.10571C2.62989 3.02101 2.78123 2.97337 2.93909 2.97323H9.84286L19.2032 10.195L12.329 15.8649Z" fill="black" fill-opacity="0.26"/>
<path d="M6.83608 4.14963C6.3339 4.14963 5.843 4.26262 5.42546 4.47432C5.00792 4.68602 4.68248 4.98691 4.4903 5.33896C4.29813 5.691 4.24785 6.07838 4.34582 6.4521C4.44379 6.82583 4.68561 7.16911 5.0407 7.43856C5.39579 7.708 5.84821 7.89149 6.34073 7.96583C6.83326 8.04017 7.34378 8.00201 7.80773 7.85619C8.27168 7.71037 8.66823 7.46343 8.94722 7.1466C9.22621 6.82978 9.37513 6.45729 9.37513 6.07624C9.37436 5.56545 9.10661 5.07574 8.63061 4.71456C8.15462 4.35337 7.50924 4.15021 6.83608 4.14963ZM6.83608 6.81724C6.64293 6.81724 6.45413 6.77378 6.29353 6.69236C6.13294 6.61094 6.00777 6.49521 5.93386 6.35981C5.85994 6.22441 5.84061 6.07542 5.87829 5.93168C5.91597 5.78793 6.00897 5.6559 6.14555 5.55227C6.28212 5.44864 6.45613 5.37806 6.64556 5.34947C6.835 5.32088 7.03135 5.33556 7.20979 5.39164C7.38823 5.44772 7.54075 5.5427 7.64806 5.66456C7.75536 5.78642 7.81264 5.92968 7.81264 6.07624C7.81234 6.27269 7.70936 6.46104 7.52628 6.59996C7.3432 6.73887 7.09499 6.81702 6.83608 6.81724Z" fill="black" fill-opacity="0.26"/>
</g>
<defs>
<clipPath id="clip0_0_2306">
<rect width="24.9999" height="18.9697" rx="9.35517" fill="white"/>
</clipPath>
</defs>
</svg>
