<svg width="99" height="39" viewBox="0 0 99 39" fill="none" xmlns="http://www.w3.org/2000/svg">
<g clip-path="url(#clip0_0_1159)">
<path d="M2.34366e-05 15.1486C5.59952 23.1632 29.9615 31.1408 46.3479 30.6401C64.0598 30.1391 73.7592 26.6345 92.6425 13.7474C92.5876 15.1584 92.4213 16.3067 92.4482 17.3541C92.4288 18.5491 92.4202 19.8125 92.6731 20.9643C92.7274 21.3062 93.4377 21.8244 93.8569 21.8279C94.276 21.8314 94.8805 21.2445 94.9623 20.881C95.6655 17.4037 96.2327 13.9481 96.857 10.4133C97.0234 9.26502 96.4847 8.50927 95.2734 8.35119C90.6762 7.95997 86.068 7.50036 81.4135 7.18834C80.3602 7.1454 79.1787 7.61362 77.8176 7.82992C79.3738 10.5975 81.7693 9.86625 83.6583 10.3373C85.6261 10.866 87.6757 11.031 90.1879 11.4732C85.1482 16.2005 79.8122 19.5025 73.9947 21.9695C52.7008 31.1029 31.5461 29.6971 10.7177 20.2464C8.00694 18.9944 5.45692 17.4365 2.80338 16.1053C2.00047 15.8824 1.26559 15.6486 2.34366e-05 15.1486Z" fill="#DF6951"/>
</g>
<defs>
<clipPath id="clip0_0_1159">
<rect width="96.1304" height="23.346" fill="white" transform="matrix(0.991581 -0.157583 -0.157583 -0.991581 3.67893 38.298)"/>
</clipPath>
</defs>
</svg>
