<svg width="20" height="20" viewBox="0 0 20 20" fill="none" xmlns="http://www.w3.org/2000/svg">
<path d="M16.25 18.125H16.1437C3.86247 17.4187 2.11872 7.05625 1.87497 3.89375C1.85533 3.64786 1.8844 3.40052 1.96052 3.16588C2.03663 2.93125 2.1583 2.71394 2.31855 2.52641C2.47879 2.33888 2.67446 2.1848 2.89435 2.07302C3.11424 1.96124 3.35403 1.89395 3.59997 1.875H7.04372C7.29407 1.87476 7.53872 1.94969 7.74599 2.0901C7.95326 2.23051 8.11359 2.42992 8.20622 2.6625L9.15622 5C9.24769 5.22722 9.27039 5.4763 9.2215 5.71631C9.17261 5.95631 9.05428 6.17667 8.88122 6.35L7.54997 7.69375C7.75792 8.87547 8.32384 9.96479 9.17116 10.8143C10.0185 11.6639 11.1063 12.2327 12.2875 12.4438L13.6437 11.1C13.8197 10.9288 14.0421 10.8133 14.2833 10.7677C14.5245 10.7221 14.7737 10.7486 15 10.8438L17.3562 11.7875C17.5853 11.8831 17.7807 12.0446 17.9176 12.2517C18.0546 12.4587 18.1267 12.7018 18.125 12.95V16.25C18.125 16.7473 17.9274 17.2242 17.5758 17.5758C17.2242 17.9275 16.7473 18.125 16.25 18.125ZM3.74997 3.125C3.58421 3.125 3.42524 3.19085 3.30803 3.30806C3.19082 3.42527 3.12497 3.58424 3.12497 3.75V3.8C3.41247 7.5 5.25622 16.25 16.2125 16.875C16.2946 16.8801 16.3769 16.8689 16.4547 16.8421C16.5324 16.8153 16.6042 16.7734 16.6657 16.7188C16.7273 16.6642 16.7774 16.598 16.8133 16.524C16.8492 16.45 16.8702 16.3696 16.875 16.2875V12.95L14.5187 12.0062L12.725 13.7875L12.425 13.75C6.98747 13.0688 6.24997 7.63125 6.24997 7.575L6.21247 7.275L7.98747 5.48125L7.04997 3.125H3.74997Z" fill="black" fill-opacity="0.26"/>
</svg>
