<svg width="20" height="20" viewBox="0 0 20 20" fill="none" xmlns="http://www.w3.org/2000/svg">
<g clip-path="url(#clip0_0_1291)">
<path d="M8.43085 14.0984C8.48418 14.0534 8.53835 14.0067 8.58835 13.9576C5.80418 16.6892 1.26418 15.4142 0.200013 11.5617V11.5559C-1.22749 6.31422 4.79168 2.33256 8.58668 5.99922C8.66585 6.08339 13.9083 11.6742 13.575 11.3184H13.59C14.3725 12.1251 15.5042 12.0367 16.1775 11.3317C16.9017 10.5751 16.9275 9.34006 16.2167 8.57089C15.0942 7.27839 12.89 8.24422 13.1008 10.1601L11.8392 8.87506L10.3758 7.47589C10.6775 6.87672 11.0733 6.35256 11.5692 5.89922C11.5158 5.94506 11.4617 5.99256 11.4117 6.04006C14.2067 3.29839 18.7433 4.60339 19.8 8.43922V8.44422C21.2308 13.6851 15.205 17.6667 11.4133 14.0001C11.3358 13.9167 6.09668 8.29089 6.42835 8.64756L6.42501 8.63506C6.41168 8.63506 6.41168 8.62256 6.41168 8.62256C5.59001 7.77506 4.47585 7.90256 3.82418 8.59672C3.09918 9.35339 3.07418 10.5884 3.78668 11.3459C4.86001 12.6084 7.11168 11.6726 6.90001 9.71839C6.98168 9.80256 9.80751 12.7034 9.62751 12.5192C9.17001 13.4317 8.65835 13.8509 8.43085 14.0984Z" fill="#DF6951"/>
</g>
<defs>
<clipPath id="clip0_0_1291">
<rect width="20" height="20" fill="white"/>
</clipPath>
</defs>
</svg>
