<svg width="20" height="20" viewBox="0 0 20 20" fill="none" xmlns="http://www.w3.org/2000/svg">
<g clip-path="url(#clip0_0_1339)">
<path d="M17.778 3.33301H2.22244C1.92775 3.33301 1.64514 3.45007 1.43676 3.65844C1.22839 3.86682 1.11133 4.14943 1.11133 4.44412V15.5552C1.11133 15.8499 1.22839 16.1325 1.43676 16.3409C1.64514 16.5493 1.92775 16.6663 2.22244 16.6663H17.778C18.0727 16.6663 18.3553 16.5493 18.5637 16.3409C18.772 16.1325 18.8891 15.8499 18.8891 15.5552V4.44412C18.8891 4.14943 18.772 3.86682 18.5637 3.65844C18.3553 3.45007 18.0727 3.33301 17.778 3.33301ZM16.9224 15.5552H3.14466L7.03355 11.533L6.23355 10.7608L2.22244 14.9108V5.28856L9.128 12.1608C9.33618 12.3677 9.61779 12.4839 9.91133 12.4839C10.2049 12.4839 10.4865 12.3677 10.6947 12.1608L17.778 5.11634V14.8386L13.6891 10.7497L12.9058 11.533L16.9224 15.5552ZM2.95022 4.44412H16.878L9.91133 11.3719L2.95022 4.44412Z" fill="black" fill-opacity="0.26"/>
</g>
<defs>
<clipPath id="clip0_0_1339">
<rect width="20" height="20" rx="10" fill="white"/>
</clipPath>
</defs>
</svg>
