<svg width="25" height="19" viewBox="0 0 25 19" fill="none" xmlns="http://www.w3.org/2000/svg">
<path d="M10.0707 13.8573V7.53333H9.08167C8.37331 7.81985 7.6887 8.13898 7.03168 8.48893V9.31292C7.61762 9.00822 8.54574 8.57785 8.9973 8.39171H9.01605V13.8573H10.0707ZM11.927 12.3101C12.0004 13.0689 12.8551 13.9771 14.5879 13.9771C16.5535 13.9771 17.7129 12.7132 17.7129 10.5732C17.7129 8.28026 16.4926 7.41002 14.6613 7.41002C13.2145 7.41002 11.8535 8.20675 11.8535 9.55479C11.8535 10.9301 13.141 11.6533 14.4723 11.6533C15.6379 11.6533 16.3941 11.2075 16.6332 10.7167H16.6754C16.6691 12.2769 15.9551 13.2823 14.6363 13.2823C13.5988 13.2823 13.0613 12.7488 12.9957 12.3101H11.927ZM16.541 9.56308C16.541 10.3883 15.6676 10.9621 14.691 10.9621C13.752 10.9621 12.9035 10.508 12.9035 9.53937C12.9035 8.56362 13.8129 8.10479 14.7285 8.10479C15.7176 8.10479 16.541 8.57666 16.541 9.56308Z" fill="black" fill-opacity="0.26"/>
<path d="M5.46872 0C5.67592 0 5.87463 0.0624558 6.02114 0.173628C6.16765 0.2848 6.24996 0.435582 6.24996 0.592803V1.18561H18.7499V0.592803C18.7499 0.435582 18.8322 0.2848 18.9787 0.173628C19.1252 0.0624558 19.3239 0 19.5311 0C19.7383 0 19.9371 0.0624558 20.0836 0.173628C20.2301 0.2848 20.3124 0.435582 20.3124 0.592803V1.18561H21.8749C22.7037 1.18561 23.4985 1.43543 24.0846 1.88012C24.6706 2.32481 24.9999 2.92793 24.9999 3.55682V16.5985C24.9999 17.2274 24.6706 17.8305 24.0846 18.2752C23.4985 18.7199 22.7037 18.9697 21.8749 18.9697H3.12498C2.29619 18.9697 1.50133 18.7199 0.915286 18.2752C0.329238 17.8305 0 17.2274 0 16.5985V3.55682C0 2.92793 0.329238 2.32481 0.915286 1.88012C1.50133 1.43543 2.29619 1.18561 3.12498 1.18561H4.68747V0.592803C4.68747 0.435582 4.76978 0.2848 4.9163 0.173628C5.06281 0.0624558 5.26152 0 5.46872 0V0ZM1.56249 4.74242V16.5985C1.56249 16.9129 1.72711 17.2145 2.02013 17.4368C2.31316 17.6592 2.71058 17.7841 3.12498 17.7841H21.8749C22.2893 17.7841 22.6867 17.6592 22.9797 17.4368C23.2727 17.2145 23.4374 16.9129 23.4374 16.5985V4.74242H1.56249Z" fill="black" fill-opacity="0.26"/>
</svg>
