<svg width="25" height="19" viewBox="0 0 25 19" fill="none" xmlns="http://www.w3.org/2000/svg">
<g clip-path="url(#clip0_0_2299)">
<path d="M12.4994 7.58788C14.6244 7.58788 16.3244 6.30742 16.3244 4.74242C16.3244 3.17742 14.6244 1.89697 12.4994 1.89697C10.3745 1.89697 8.67446 3.17742 8.67446 4.74242C8.67446 6.30742 10.3745 7.58788 12.4994 7.58788ZM12.4994 9.48484C8.99946 9.48484 6.17448 7.36024 6.17448 4.74242C6.17448 2.12461 8.99946 0 12.4994 0C15.9994 0 18.8244 2.12461 18.8244 4.74242C18.8244 7.36024 15.9994 9.48484 12.4994 9.48484ZM3.74949 17.0727H21.2494V15.8112C21.2494 14.1514 18.3619 12.4346 12.4994 12.4346C6.63697 12.4346 3.74949 14.1514 3.74949 15.8112V17.0727ZM12.4994 10.5377C20.8244 10.5377 23.7494 13.6961 23.7494 15.8112V18.9697H1.2495V15.8112C1.2495 13.6961 4.17449 10.5377 12.4994 10.5377Z" fill="black" fill-opacity="0.26"/>
</g>
<defs>
<clipPath id="clip0_0_2299">
<rect width="24.9999" height="18.9697" rx="9.35517" fill="white"/>
</clipPath>
</defs>
</svg>
