<svg width="25" height="19" viewBox="0 0 25 19" fill="none" xmlns="http://www.w3.org/2000/svg">
<path d="M11.3281 9.48488C11.3281 9.72071 11.4515 9.94689 11.6713 10.1136C11.8911 10.2804 12.1892 10.3741 12.5 10.3741C12.8108 10.3741 13.1088 10.2804 13.3286 10.1136C13.5484 9.94689 13.6718 9.72071 13.6718 9.48488C13.6718 9.24905 13.5484 9.02288 13.3286 8.85612C13.1088 8.68936 12.8108 8.59568 12.5 8.59568C12.1892 8.59568 11.8911 8.68936 11.6713 8.85612C11.4515 9.02288 11.3281 9.24905 11.3281 9.48488ZM16.2109 9.48488C16.2109 9.72071 16.3343 9.94689 16.5541 10.1136C16.7739 10.2804 17.0719 10.3741 17.3827 10.3741C17.6935 10.3741 17.9916 10.2804 18.2114 10.1136C18.4311 9.94689 18.5546 9.72071 18.5546 9.48488C18.5546 9.24905 18.4311 9.02288 18.2114 8.85612C17.9916 8.68936 17.6935 8.59568 17.3827 8.59568C17.0719 8.59568 16.7739 8.68936 16.5541 8.85612C16.3343 9.02288 16.2109 9.24905 16.2109 9.48488ZM6.4453 9.48488C6.4453 9.72071 6.56876 9.94689 6.78853 10.1136C7.0083 10.2804 7.30637 10.3741 7.61717 10.3741C7.92797 10.3741 8.22604 10.2804 8.4458 10.1136C8.66557 9.94689 8.78904 9.72071 8.78904 9.48488C8.78904 9.24905 8.66557 9.02288 8.4458 8.85612C8.22604 8.68936 7.92797 8.59568 7.61717 8.59568C7.30637 8.59568 7.0083 8.68936 6.78853 8.85612C6.56876 9.02288 6.4453 9.24905 6.4453 9.48488ZM22.5878 6.26893C22.036 5.27413 21.245 4.38122 20.2367 3.61428C19.2355 2.85178 18.0469 2.24569 16.7382 1.83032C15.3954 1.40239 13.9697 1.18564 12.5 1.18564H12.4511C10.9716 1.1912 9.53854 1.4135 8.19089 1.85069C6.89343 2.27033 5.71597 2.8775 4.72412 3.63837C3.72559 4.40345 2.9419 5.29266 2.39991 6.28375C1.83839 7.31004 1.55519 8.40116 1.56251 9.52378C1.5708 10.8103 1.97192 12.0779 2.73438 13.227V16.0428C2.73438 16.2688 2.8527 16.4855 3.06331 16.6453C3.27392 16.8051 3.55957 16.8949 3.85742 16.8949H7.57078C9.08516 17.4735 10.7556 17.7778 12.4511 17.7841H12.5024C13.9648 17.7841 15.3832 17.5692 16.7187 17.1487C18.0207 16.7383 19.2049 16.1393 20.205 15.3851C21.2133 14.6274 22.0067 13.7419 22.5609 12.7546C23.1371 11.732 23.4301 10.6446 23.4374 9.52193C23.4447 8.39376 23.1566 7.29892 22.5878 6.26893ZM18.8988 14.3829C17.1874 15.6686 14.9169 16.3762 12.5 16.3762H12.4584C10.9863 16.3707 9.5239 16.0928 8.2324 15.5704L8.02732 15.487H4.58984V12.8787L4.47998 12.7231C3.79151 11.7431 3.4253 10.6334 3.41797 9.51638C3.40821 7.66942 4.33838 5.93548 6.04491 4.62946C7.749 3.32344 10.0268 2.60096 12.4609 2.59355H12.5024C13.7231 2.59355 14.9072 2.77324 16.0229 3.12893C17.1117 3.47534 18.0883 3.97367 18.9281 4.61093C19.7655 5.24634 20.4247 5.9892 20.8813 6.81542C21.3549 7.67128 21.5917 8.57901 21.5868 9.51638C21.5722 11.3615 20.6176 13.0899 18.8988 14.3829Z" fill="black" fill-opacity="0.26"/>
</svg>
