<svg width="12" height="8" viewBox="0 0 12 8" fill="none" xmlns="http://www.w3.org/2000/svg">
<path d="M5.2217 7.38957L0.258066 1.71595C-0.327717 1.04841 0.148361 3.80558e-07 1.03739 3.80558e-07H10.9647C11.1636 -0.000170208 11.3584 0.0570133 11.5257 0.164703C11.693 0.272394 11.8257 0.426025 11.908 0.6072C11.9902 0.788375 12.0185 0.989414 11.9894 1.18624C11.9603 1.38307 11.8751 1.56734 11.744 1.71699L6.78034 7.38853C6.6832 7.4997 6.5634 7.58879 6.42898 7.64984C6.29457 7.71088 6.14865 7.74247 6.00102 7.74247C5.85339 7.74247 5.70747 7.71088 5.57306 7.64984C5.43864 7.58879 5.31884 7.4997 5.2217 7.38853V7.38957Z" fill="white"/>
</svg>
