<svg width="25" height="19" viewBox="0 0 25 19" fill="none" xmlns="http://www.w3.org/2000/svg">
<path d="M20.3127 17.1913H20.1799C4.82844 16.5215 2.64876 6.6928 2.34407 3.69322C2.31952 3.46 2.35586 3.22539 2.45101 3.00285C2.54615 2.7803 2.69823 2.57419 2.89854 2.39632C3.09884 2.21844 3.34343 2.07231 3.61829 1.96629C3.89316 1.86027 4.19289 1.79644 4.50031 1.77847H8.80498C9.11791 1.77824 9.42372 1.84931 9.68281 1.98249C9.94189 2.11566 10.1423 2.3048 10.2581 2.5254L11.4456 4.74248C11.5599 4.95799 11.5883 5.19424 11.5272 5.42189C11.4661 5.64953 11.3182 5.85853 11.1018 6.02293L9.43778 7.29746C9.69772 8.4183 10.4051 9.45151 11.4643 10.2573C12.5234 11.0631 13.8832 11.6026 15.3596 11.8028L17.0549 10.5282C17.2748 10.3659 17.5529 10.2563 17.8544 10.2131C18.1558 10.1698 18.4674 10.1949 18.7502 10.2852L21.6955 11.1803C21.9819 11.2709 22.2262 11.4242 22.3973 11.6206C22.5684 11.8169 22.6587 12.0475 22.6565 12.2829V15.4129C22.6565 15.8846 22.4095 16.3369 21.97 16.6705C21.5305 17.004 20.9343 17.1913 20.3127 17.1913ZM4.68781 2.96407C4.48061 2.96407 4.2819 3.02653 4.13539 3.1377C3.98888 3.24887 3.90657 3.39965 3.90657 3.55687V3.6043C4.26594 7.11369 6.57061 15.4129 20.2658 16.0057C20.3685 16.0105 20.4714 15.9999 20.5686 15.9745C20.6658 15.9491 20.7555 15.9094 20.8324 15.8576C20.9093 15.8058 20.972 15.743 21.0169 15.6728C21.0618 15.6026 21.088 15.5264 21.094 15.4485V12.2829L18.1487 11.3878L15.9065 13.0773L15.5315 13.0417C8.73466 12.3956 7.81279 7.23818 7.81279 7.18483L7.76592 6.90028L9.98466 5.19894L8.81279 2.96407H4.68781Z" fill="black" fill-opacity="0.26"/>
</svg>
