<svg width="20" height="20" viewBox="0 0 20 20" fill="none" xmlns="http://www.w3.org/2000/svg">
<g clip-path="url(#clip0_0_1289)">
<path d="M17.9449 5.9275C18.7583 5.35 19.4424 4.62917 19.9999 3.79917V3.79833C19.2558 4.12417 18.4641 4.34083 17.6374 4.44583C18.4874 3.93833 19.1366 3.14083 19.4416 2.18C18.6491 2.6525 17.7741 2.98583 16.8416 3.1725C16.0891 2.37083 15.0166 1.875 13.8466 1.875C11.5766 1.875 9.74911 3.7175 9.74911 5.97583C9.74911 6.30083 9.77661 6.61333 9.84411 6.91083C6.43577 6.74417 3.41911 5.11083 1.39244 2.62167C1.03911 3.23583 0.830772 3.93833 0.830772 4.69417C0.830772 6.11417 1.56161 7.3725 2.65244 8.10167C1.99327 8.08917 1.34744 7.8975 0.799939 7.59667V7.64167C0.799939 9.63417 2.22077 11.2892 4.08494 11.6708C3.75077 11.7625 3.38744 11.8058 3.00994 11.8058C2.74744 11.8058 2.48244 11.7908 2.23411 11.7358C2.76494 13.3592 4.27327 14.5533 6.06494 14.5925C4.66994 15.6833 2.89827 16.3408 0.980772 16.3408C0.644939 16.3408 0.322439 16.3258 -6.10352e-05 16.285C1.81661 17.4558 3.96827 18.125 6.28994 18.125C13.5258 18.125 18.2416 12.0883 17.9449 5.9275Z" fill="#DF6951"/>
</g>
<defs>
<clipPath id="clip0_0_1289">
<rect width="20" height="20" fill="white"/>
</clipPath>
</defs>
</svg>
