<svg width="92" height="16" viewBox="0 0 92 16" fill="none" xmlns="http://www.w3.org/2000/svg">
<g clip-path="url(#clip0_0_1195)">
<path d="M3.612 15.4425C3.226 15.6405 2.788 15.2935 2.866 14.8505L3.696 10.1205L0.172996 6.76452C-0.156004 6.45052 0.0149962 5.87652 0.455996 5.81452L5.354 5.11852L7.538 0.791523C7.735 0.401523 8.268 0.401523 8.465 0.791523L10.649 5.11852L15.547 5.81452C15.988 5.87652 16.159 6.45052 15.829 6.76452L12.307 10.1205L13.137 14.8505C13.215 15.2935 12.777 15.6405 12.391 15.4425L8 13.1865L3.611 15.4425H3.612Z" fill="#FFBA0A"/>
</g>
<g clip-path="url(#clip1_0_1195)">
<path d="M22.612 15.4425C22.226 15.6405 21.788 15.2935 21.866 14.8505L22.696 10.1205L19.173 6.76452C18.844 6.45052 19.015 5.87652 19.456 5.81452L24.354 5.11852L26.538 0.791523C26.735 0.401523 27.268 0.401523 27.465 0.791523L29.649 5.11852L34.547 5.81452C34.988 5.87652 35.159 6.45052 34.829 6.76452L31.307 10.1205L32.137 14.8505C32.215 15.2935 31.777 15.6405 31.391 15.4425L27 13.1865L22.611 15.4425H22.612Z" fill="#FFBA0A"/>
</g>
<g clip-path="url(#clip2_0_1195)">
<path d="M41.612 15.4425C41.226 15.6405 40.788 15.2935 40.866 14.8505L41.696 10.1205L38.173 6.76452C37.844 6.45052 38.015 5.87652 38.456 5.81452L43.354 5.11852L45.538 0.791523C45.735 0.401523 46.268 0.401523 46.465 0.791523L48.649 5.11852L53.547 5.81452C53.988 5.87652 54.159 6.45052 53.829 6.76452L50.307 10.1205L51.137 14.8505C51.215 15.2935 50.777 15.6405 50.391 15.4425L46 13.1865L41.611 15.4425H41.612Z" fill="#FFBA0A"/>
</g>
<g clip-path="url(#clip3_0_1195)">
<path d="M60.612 15.4425C60.226 15.6405 59.788 15.2935 59.866 14.8505L60.696 10.1205L57.173 6.76452C56.844 6.45052 57.015 5.87652 57.456 5.81452L62.354 5.11852L64.538 0.791523C64.735 0.401523 65.268 0.401523 65.465 0.791523L67.649 5.11852L72.547 5.81452C72.988 5.87652 73.159 6.45052 72.829 6.76452L69.307 10.1205L70.137 14.8505C70.215 15.2935 69.777 15.6405 69.391 15.4425L65 13.1865L60.611 15.4425H60.612Z" fill="#FFBA0A"/>
</g>
<g clip-path="url(#clip4_0_1195)">
<path d="M79.612 15.4425C79.226 15.6405 78.788 15.2935 78.866 14.8505L79.696 10.1205L76.173 6.76452C75.844 6.45052 76.015 5.87652 76.456 5.81452L81.354 5.11852L83.538 0.791523C83.735 0.401523 84.268 0.401523 84.465 0.791523L86.649 5.11852L91.547 5.81452C91.988 5.87652 92.159 6.45052 91.829 6.76452L88.307 10.1205L89.137 14.8505C89.215 15.2935 88.777 15.6405 88.391 15.4425L84 13.1865L79.611 15.4425H79.612Z" fill="#FFBA0A"/>
</g>
<defs>
<clipPath id="clip0_0_1195">
<rect width="16" height="16" fill="white"/>
</clipPath>
<clipPath id="clip1_0_1195">
<rect width="16" height="16" fill="white" transform="translate(19)"/>
</clipPath>
<clipPath id="clip2_0_1195">
<rect width="16" height="16" fill="white" transform="translate(38)"/>
</clipPath>
<clipPath id="clip3_0_1195">
<rect width="16" height="16" fill="white" transform="translate(57)"/>
</clipPath>
<clipPath id="clip4_0_1195">
<rect width="16" height="16" fill="white" transform="translate(76)"/>
</clipPath>
</defs>
</svg>
